ply
format ascii 1.0
comment Created by CloudCompare v2.11.1 (Anoia)
comment Created 2026/06/15 19:25
obj_info Generated by CloudCompare!
element vertex 319
property float x
property float y
property float z
end_header
-8.79958 0.950883 9.29528 
-8.80319 1.03859 9.3071 
-8.10899 -10.6393 -3.27637 
-7.83275 -8.34438 -3.18279 
-8.54125 -8.07849 -3.13791 
-7.55283 -8.58739 -3.16251 
-4.86341 -9.36267 -2.89536 
-7.03933 -12.4351 -3.01551 
-7.15144 -12.4438 -3.03478 
-8.06762 -11 -3.32643 
-9.30758 1.01025 9.3184 
6.22321 3.828 6.69249 
6.26864 4.08231 4.22925 
-5.91178 -11.2605 -2.9834 
-9.02505 1.18567 9.30293 
-7.33159 -10.0857 -3.21259 
-7.48624 -8.62459 -3.15609 
-4.42352 -12.1976 -2.71101 
-8.66491 0.97624 9.29109 
-7.84601 2.77896 9.2195 
-8.43872 -8.50315 -3.1815 
-8.54447 2.2011 9.20299 
-8.63522 1.52164 9.33016 
-8.92282 1.35244 9.31825 
-8.63268 1.39802 9.31016 
-8.94675 1.01134 9.30171 
-8.57154 1.8788 9.3329 
-8.56837 1.94013 9.34115 
-6.75409 -8.05324 -3.03143 
-6.8035 -8.0064 -3.03387 
-1.6505 -11.6298 -2.67898 
-8.24597 2.30335 9.19081 
-9.21213 2.60491 9.19887 
-6.09674 -9.71055 -3.06203 
-7.96083 2.45474 9.21076 
-8.17335 -12.4584 -3.01128 
6.27289 3.85479 4.50201 
-8.70744 2.08242 9.37214 
-9.53484 0.940253 9.29312 
-9.60377 2.13863 9.28738 
-9.47515 1.87724 9.34733 
-8.61866 2.72477 9.20446 
-9.71088 1.77283 9.26678 
-5.36887 -12.3 -2.73393 
-8.42502 -9.48133 -3.15471 
-5.99735 -8.62978 -2.97646 
-6.06884 -8.61132 -2.98794 
-8.30642 -11.1312 -3.04033 
-6.74872 -9.23519 -3.10629 
-6.80853 -9.1922 -3.11102 
6.32072 -7.82031 9.80089 
-4.4759 -11.5755 -2.79556 
-9.24721 1.50675 9.29186 
-8.18753 -12.1839 -3.3446 
6.24457 4.29689 4.29454 
-1.65252 -11.9401 -2.57955 
-5.99706 -10.9548 -3.11483 
-8.23497 -9.18187 -3.24325 
-0.861877 -11.6789 -2.57392 
6.26226 4.18969 3.91852 
-8.77537 2.24138 9.33909 
-8.35911 -10.1482 -3.24672 
-8.30583 -10.9905 -3.02064 
-9.25101 1.44721 9.28426 
3.74112 -9.6621 -2.82175 
3.82281 -9.55582 -3.17181 
3.18718 -9.54114 -2.52244 
3.18393 -9.65845 -2.55492 
3.40091 -8.94385 -2.75353 
1.20012 -10.734 -3.28776 
5.2453 -5.30352 -2.73734 
4.3752 -7.67622 -2.62833 
3.7405 -6.73843 -2.63189 
4.70287 -8.81089 -2.92468 
3.47654 -8.91495 -2.72772 
4.19626 -10.5644 -3.011 
2.55733 -9.17694 -3.00748 
2.70222 -10.1127 -2.97209 
2.71021 -10.1845 -2.99839 
2.80748 -10.0821 -3.26667 
1.38248 -8.91181 -2.80028 
1.35062 -8.9087 -2.80987 
2.09168 -12.045 -3.11974 
0.974627 -10.7095 -3.35788 
4.97996 -8.81413 -2.48261 
2.27365 -10.6977 -2.6484 
2.19298 -9.32553 -3.18224 
1.60276 -8.89704 -2.66409 
2.209 -8.97804 -3.08218 
1.40697 -7.87234 -2.99253 
4.20712 -10.2267 -2.89978 
4.67983 -12.0942 -2.33027 
4.20685 -10.3429 -2.93699 
2.44647 -10.9627 -2.75005 
2.58871 -10.0788 -2.56965 
2.22261 -11.7782 -2.59854 
1.8815 -10.4326 -3.04379 
1.10205 -10.2901 -3.17502 
1.35892 -10.3267 -3.09862 
0.474655 -5.9441 -2.88492 
1.19606 -6.69811 -2.91906 
-2.02146 -8.21038 -2.85832 
3.61876 -9.60555 -2.83043 
1.19376 -8.37553 -2.665 
2.51195 -11.1657 -3.1687 
2.47482 -10.8816 -2.79741 
0.202863 -12.3415 -3.49124 
5.07869 -8.20065 -2.72391 
0.344422 -5.768 -2.9116 
0.339089 -5.81711 -2.92786 
2.91634 -5.48418 -2.77238 
2.81335 -9.47203 -2.82438 
2.8971 -9.37021 -3.07058 
2.74978 -9.90678 -2.95421 
1.58974 -8.9475 -2.62796 
1.63914 -8.88676 -2.83451 
1.445 -7.45728 -2.81428 
2.30354 -10.4605 -2.56517 
2.82817 -9.31985 -2.82644 
4.23263 -9.20352 -2.66267 
3.34814 -8.09568 -2.72318 
2.89054 -8.80049 -2.58447 
2.97462 -8.7092 -2.81218 
4.38278 -7.50784 -2.71729 
4.76327 -11.241 -2.36677 
4.87079 -11.127 -2.80016 
-9.50554 2.00455 9.22617 
4.63588 -9.69575 -2.43232 
3.5092 -7.18865 -2.79436 
-8.43979 2.58647 9.26338 
-8.48058 1.72125 9.23911 
-0.513423 -6.88864 -2.97321 
3.84825 -7.607 -2.68656 
2.3682 -5.96949 -2.78593 
2.82206 -5.51161 -2.82366 
2.27241 -5.96217 -2.82088 
-1.75954 -8.45089 -2.8327 
-2.16297 -8.67318 -3.17519 
2.55682 -10.1905 -2.54053 
2.79372 -9.63212 -2.97169 
2.70904 -9.32266 -3.1746 
2.22733 -11.0023 -2.75803 
2.15022 -10.3575 -3.2532 
0.241567 -7.6576 -2.79657 
-2.40652 -8.9928 -2.8381 
0.611048 -7.58013 -2.72875 
-2.40305 -8.9358 -2.83427 
-9.17894 2.028 9.21992 
0.133843 -10.1339 -3.23686 
-0.736185 -10.249 -3.09505 
0.131252 -10.1575 -3.24949 
0.0772859 -10.3807 -3.32084 
-1.02338 -10.9263 -3.02302 
-0.687405 -9.84461 -2.83603 
-0.544857 -9.69504 -3.12248 
-1.34607 -5.83132 -2.94113 
-0.755605 -11.877 -2.5369 
-0.578348 -11.704 -2.85985 
-0.499586 -11.6163 -2.98817 
-1.49189 -11.3199 -3.34178 
-0.850019 -11.7988 -2.81708 
-0.72235 -11.6032 -3.13108 
-1.21402 -11.4847 -3.11611 
-0.566544 -12.2575 -3.46306 
-1.153 -11.4472 -3.25733 
-0.748605 -9.95663 -2.7557 
0.217592 -9.71665 -3.01572 
-0.102797 -10.216 -2.60301 
-0.744734 -10.3655 -3.22138 
0.194639 -9.81759 -3.06726 
-0.0772424 -9.93226 -3.18183 
-0.229234 -11.1957 -3.28594 
-0.241091 -10.945 -2.99899 
-0.54792 -10.7561 -3.24261 
-0.538117 -11.6652 -2.90268 
-0.234799 -10.9613 -3.05661 
-2.1536 -8.54923 -3.10473 
-1.97134 -8.33071 -2.88453 
-1.63244 -8.0388 -3.14863 
-2.16289 -8.58668 -3.11943 
-0.327877 -11.4552 -3.29953 
-0.81666 -12.1108 -2.56151 
-2.15491 -8.52538 -3.06151 
1.2216 -6.5654 -2.82262 
2.57311 -10.1524 -2.5219 
3.54521 -9.60383 -2.74666 
3.24343 -7.34341 -2.62126 
1.72814 -6.75639 -2.971 
2.89178 -9.22864 -2.86054 
2.96337 -8.68081 -2.73285 
2.82281 -9.12435 -2.60904 
-8.30637 2.21218 9.24927 
2.9237 -8.8995 -2.70535 
2.81707 -8.62281 -2.89701 
2.90205 -9.00981 -2.76045 
1.04414 -9.67664 -3.19972 
4.92338 -10.1974 -2.73607 
4.88294 -11.2076 -2.94137 
3.77599 -8.50244 -3.05979 
3.24159 -7.76151 -2.9193 
5.06398 -8.22224 -2.6392 
5.14371 -8.1302 -2.97275 
5.16743 -6.81084 -2.65802 
-0.288438 -11.2119 -3.20795 
3.28014 -9.3017 -2.89493 
-2.14791 -8.53739 -3.06379 
-1.93027 -11.1665 -3.46106 
0.0493474 -8.24467 -2.95356 
-2.53125 -9.44478 -2.96225 
3.30644 -7.15073 -2.70774 
3.31496 -7.18489 -2.7246 
2.83721 -9.16174 -2.68615 
3.1675 -8.1393 -3.05337 
3.27856 -9.53423 -2.97268 
1.06403 -9.44438 -3.10657 
2.3331 -11.9197 -3.18505 
2.32391 -12.1025 -3.24732 
1.14307 -8.81747 -2.89909 
1.2091 -8.75266 -3.08106 
4.92289 -9.61641 -2.55208 
3.45285 -6.77244 -2.75298 
3.28566 -9.20004 -2.86349 
4.78095 -11.4703 -2.53935 
4.87699 -11.3233 -2.9781 
3.31272 -8.64607 -2.76157 
3.82132 -7.50375 -2.79895 
1.68877 -6.71048 -2.94543 
-8.3667 2.03894 9.24183 
-8.3314 2.0925 9.22983 
-8.75265 1.76292 9.25237 
-8.56165 2.23131 9.2396 
3.14563 -8.28867 -3.06919 
4.65114 -10.1776 -2.67732 
2.59141 -7.5806 -2.71373 
1.04725 -9.61165 -3.17457 
1.9515 -7.11181 -3.02004 
2.56295 -11.0035 -3.26262 
2.16962 -11.0543 -2.68869 
1.24231 -8.84617 -2.87686 
-1.81519 -9.44285 -3.20237 
-1.78143 -9.42415 -3.27355 
-0.668896 -10.6976 -3.31518 
0.117121 -12.1084 -2.94051 
4.21164 -9.69264 -2.72856 
3.57504 -8.08757 -3.00829 
4.23495 -9.1179 -2.634 
4.15033 -11.5787 -3.09695 
2.61903 -7.82182 -3.00833 
2.6008 -7.97819 -3.08734 
2.33302 -8.54073 -2.60029 
0.417159 -5.56461 -2.86763 
5.06687 -8.09463 -2.59036 
4.41077 -7.13445 -2.64611 
-1.02476 -10.6096 -3.38645 
0.130542 -12.1302 -3.01032 
0.218696 -12.0628 -3.22522 
-1.76481 -9.39193 -3.24179 
-1.53127 -9.51859 -3.10628 
-1.36278 -9.56322 -3.16373 
-1.81924 -9.45704 -3.2003 
0.346713 -11.5966 -3.17223 
-0.111869 -9.76379 -2.72592 
-1.07233 -9.70178 -3.03713 
-0.258006 -10.0121 -2.6664 
-2.11668 -9.58666 -2.78962 
0.25108 -11.916 -3.21304 
0.0627111 -12.1467 -2.83508 
0.33724 -11.8539 -3.42314 
3.45392 -7.19284 -2.87413 
-2.29304 -9.62416 -2.85867 
-2.13216 -9.57714 -2.8731 
-0.972435 -6.18912 -2.91694 
3.37223 -7.15079 -2.8993 
0.577269 -7.99521 -2.9328 
0.0621727 -8.04818 -2.82365 
-0.394488 -8.18195 -3.13473 
-0.292275 -8.72007 -2.79931 
-0.636849 -8.64624 -2.88656 
-0.0478947 -8.33315 -3.10525 
-1.12106 -9.08163 -2.77206 
-0.458647 -9.2726 -2.86285 
-1.61291 -9.76635 -2.75093 
-0.548347 -9.36559 -2.72291 
-1.67538 -7.09196 -3.03087 
-1.77966 -7.26261 -2.91412 
1.10515 -9.10137 -2.96505 
4.0134 -6.06744 -2.76668 
2.30952 -11.3744 -2.63742 
1.19473 -8.44254 -2.73786 
-1.48215 -9.52424 -3.08425 
0.13706 -11.5596 -2.51684 
-0.680462 -10.7202 -3.27237 
-0.908456 -10.6401 -3.34512 
5.16919 -6.69395 -2.60704 
2.68771 -9.68947 -2.49267 
2.84913 -8.99237 -2.6115 
0.44778 -8.06451 -3.02718 
0.286679 -11.7788 -3.20113 
0.0220106 -12.3417 -2.9271 
0.215493 -12.1442 -3.32976 
-2.47684 -9.79349 -3.23858 
4.75528 -11.9121 -2.53391 
4.85597 -11.7599 -2.99009 
4.91795 -9.98699 -2.67056 
-9.81251 2.06454 9.2431 
4.89536 -10.5246 -2.72952 
-8.9394 1.94935 9.23508 
-0.659702 -6.59079 -2.93461 
-1.43086 -7.60896 -2.83976 
2.33056 -11.8864 -3.08149 
-0.036309 -12.1507 -2.53994 
1.08691 -9.24035 -3.02293 
2.94391 -8.91304 -2.84546 
-8.67889 1.93861 9.24315 
-8.65169 1.99631 9.23838 
0.269172 -9.29726 -2.69519 
-1.28787 -9.10407 -3.03208 
-0.649851 -12.3605 -3.35542 
-9.72636 2.25783 9.23116 
